<svg xmlns="http://www.w3.org/2000/svg" viewBox="0 0 500 500"><g id="freepik--Shadow--inject-8"><ellipse id="freepik--path--inject-8" cx="245" cy="416.24" rx="193.89" ry="11.32" style="fill:#f5f5f5"></ellipse></g><g id="freepik--Device--inject-8"><rect x="372.13" y="170.22" width="5.9" height="1" transform="translate(180.53 534.01) rotate(-86.3)" style="fill:#FF8C00"></rect><rect x="366.5" y="153.05" width="19.39" height="1" transform="translate(198.74 519.08) rotate(-86.31)" style="fill:#FF8C00"></rect><path d="M364.44,115.74H246.89A12.14,12.14,0,0,0,235,126.93l-15.19,234.5a10.4,10.4,0,0,0,10.47,11.2H347.81a12.16,12.16,0,0,0,11.92-11.2l15.18-234.5A10.39,10.39,0,0,0,364.44,115.74Z" style="fill:#FF8C00"></path><path d="M360.71,115.74H246.89A12.14,12.14,0,0,0,235,126.93l-15.19,234.5a10.4,10.4,0,0,0,10.47,11.2H344.08A12.16,12.16,0,0,0,356,361.43l15.18-234.5A10.39,10.39,0,0,0,360.71,115.74Z" style="fill:#fff;opacity:0.7000000000000001"></path><path d="M351.11,355.3H225.91a3.42,3.42,0,0,1-3.42-3.64l13.74-212.2a3.42,3.42,0,0,1,3.41-3.2H364.85a3.43,3.43,0,0,1,3.42,3.65L354.53,352.1A3.42,3.42,0,0,1,351.11,355.3Z" style="fill:#fff"></path><path d="M323.29,129.32H277.78a1.69,1.69,0,0,1-1.7-1.82h0a2,2,0,0,1,1.93-1.81h45.51a1.68,1.68,0,0,1,1.7,1.81h0A2,2,0,0,1,323.29,129.32Z" style="fill:#fff"></path><path d="M287.77,364.21a4.75,4.75,0,0,1-4.69,4.46,4.2,4.2,0,0,1-4.23-4.46,4.75,4.75,0,0,1,4.69-4.45A4.19,4.19,0,0,1,287.77,364.21Z" style="fill:#fff"></path><path d="M337.47,195H230.56l-6.8,104.9H337.47a11.22,11.22,0,0,0,11.2-11.19V206.23A11.22,11.22,0,0,0,337.47,195Z" style="fill:#FF8C00;opacity:0.2"></path></g><g id="freepik--Notification--inject-8"><rect x="185.29" y="185.71" width="153.42" height="104.91" rx="11.2" style="fill:#FF8C00"></rect><path d="M181.71,184.5a1,1,0,0,1-.7-.29l-1.8-1.79a1,1,0,0,1,1.42-1.42l1.79,1.8a1,1,0,0,1,0,1.41A1,1,0,0,1,181.71,184.5Z" style="fill:#FF8C00"></path><path d="M179,190.78h-2.53a1,1,0,0,1,0-2H179a1,1,0,0,1,0,2Z" style="fill:#FF8C00"></path><path d="M188.08,181.8a1,1,0,0,1-1-.93l-.18-2.53a1,1,0,0,1,.93-1.07,1,1,0,0,1,1.06.93l.19,2.53a1,1,0,0,1-.93,1.07Z" style="fill:#FF8C00"></path><polygon points="273.19 279.83 313.42 320.05 313.42 279.83 273.19 279.83" style="fill:#FF8C00"></polygon><path d="M284.22,262.21l-2-8.49a15.36,15.36,0,0,1,0-6.78L285,234.85a23.71,23.71,0,0,0-12.54-26.31,6.78,6.78,0,0,0,.23-.68,5.72,5.72,0,1,0-11.17-2.5,4.31,4.31,0,0,0-.09.71,23.72,23.72,0,0,0-22.57,18.44l-2.71,12.1a15.27,15.27,0,0,1-2.9,6.11l-5.39,6.85a5.06,5.06,0,0,0,2.87,8.06l47.5,10.64A5.05,5.05,0,0,0,284.22,262.21Z" style="fill:#fff"></path><path d="M248.35,264.83a2.25,2.25,0,0,0-2.7,2.59,8.21,8.21,0,0,0,14.83,3.32,2.25,2.25,0,0,0-1.33-3.49Z" style="fill:#fff"></path><path d="M211.87,248a1.48,1.48,0,0,1-1.25-.67,32.08,32.08,0,0,1,8.87-44.49,1.5,1.5,0,1,1,1.66,2.5,29.09,29.09,0,0,0-8,40.33,1.5,1.5,0,0,1-.41,2.08A1.52,1.52,0,0,1,211.87,248Z" style="fill:#fff"></path><path d="M218.22,243.74a1.5,1.5,0,0,1-1.24-.67,24.45,24.45,0,0,1,6.75-33.89,1.5,1.5,0,0,1,1.67,2.5,21.43,21.43,0,0,0-5.93,29.72,1.5,1.5,0,0,1-.41,2.08A1.54,1.54,0,0,1,218.22,243.74Z" style="fill:#fff"></path><path d="M224.58,239.49a1.48,1.48,0,0,1-1.24-.66A16.78,16.78,0,0,1,228,215.54a1.5,1.5,0,0,1,1.67,2.49,13.79,13.79,0,0,0-3.81,19.13,1.51,1.51,0,0,1-.41,2.08A1.52,1.52,0,0,1,224.58,239.49Z" style="fill:#fff"></path><path d="M298.35,269.09a1.5,1.5,0,0,1-.69-2.83,29.09,29.09,0,0,0,12.5-39.18,1.5,1.5,0,1,1,2.66-1.37A32.08,32.08,0,0,1,299,268.93,1.58,1.58,0,0,1,298.35,269.09Z" style="fill:#fff"></path><path d="M294.84,262.3a1.5,1.5,0,0,1-.69-2.83,21.42,21.42,0,0,0,9.21-28.88,1.5,1.5,0,0,1,2.67-1.38,24.42,24.42,0,0,1-10.5,32.92A1.44,1.44,0,0,1,294.84,262.3Z" style="fill:#fff"></path><path d="M291.33,255.51a1.51,1.51,0,0,1-.69-2.84,13.77,13.77,0,0,0,5.93-18.57,1.5,1.5,0,0,1,2.67-1.38A16.81,16.81,0,0,1,292,255.34,1.53,1.53,0,0,1,291.33,255.51Z" style="fill:#fff"></path></g></svg>