<!DOCTYPE svg PUBLIC "-//W3C//DTD SVG 1.1//EN" "http://www.w3.org/Graphics/SVG/1.1/DTD/svg11.dtd">
<!-- Uploaded to: SVG Repo, www.svgrepo.com, Transformed by: SVG Repo Mixer Tools -->
<svg fill="#ffffff" height="800px" width="800px" version="1.1" id="Layer_1" xmlns="http://www.w3.org/2000/svg" xmlns:xlink="http://www.w3.org/1999/xlink" viewBox="-51.2 -51.2 614.40 614.40" xml:space="preserve" stroke="#ffffff">
<g id="SVGRepo_bgCarrier" stroke-width="0"/>
<g id="SVGRepo_tracerCarrier" stroke-linecap="round" stroke-linejoin="round"/>
<g id="SVGRepo_iconCarrier"> <g> <g> <path d="M345.312,94.986c-19.649-26.415-47.644-46.43-78.829-56.355c-4.934-1.571-10.205,1.156-11.776,6.09 c-1.571,4.934,1.156,10.209,6.09,11.779c27.474,8.745,52.147,26.387,69.471,49.679c17.915,24.084,27.384,52.687,27.384,82.715 c0,55.82-33.269,106.027-84.756,127.908c-4.765,2.025-6.986,7.529-4.961,12.295c1.516,3.569,4.984,5.71,8.631,5.71 c1.224,0,2.467-0.241,3.664-0.75c58.421-24.827,96.172-81.809,96.172-145.165C376.402,154.802,365.65,122.33,345.312,94.986z"/> </g> </g> <g> <g> <path d="M218.759,143.503c-25.029,0-45.39,20.361-45.39,45.39s20.362,45.39,45.39,45.39c25.027,0,45.39-20.361,45.39-45.39 S243.788,143.503,218.759,143.503z M218.759,215.533c-14.689,0-26.64-11.951-26.64-26.64c0-14.689,11.951-26.64,26.64-26.64 s26.64,11.951,26.64,26.64C245.399,203.582,233.448,215.533,218.759,215.533z"/> </g> </g> <g> <g> <path d="M449.538,166.982c-17.974,0-32.596,14.622-32.596,32.596c0,13.892,8.739,25.776,21.006,30.46 c-8.731,59.835-43.23,113.102-93.49,146v-46.276c38.754-34.617,63.196-84.938,63.196-140.868C407.653,84.737,322.915,0,218.759,0 S29.866,84.737,29.866,188.893c0,55.927,24.44,106.246,63.191,140.863V481.45c0,16.845,13.705,30.55,30.55,30.55h190.298 c16.846,0,30.55-13.705,30.55-30.55v-83.365c60.667-35.296,102.52-96.989,112.257-166.716 c14.532-3.28,25.421-16.284,25.421-31.791C482.134,181.605,467.511,166.982,449.538,166.982z M325.708,386.966 c-3.17,1.635-6.374,3.219-9.642,4.699c-24.117,10.921-39.7,35.022-39.699,61.4v18.954c0,5.177,4.196,9.375,9.375,9.375 c5.179,0,9.375-4.197,9.375-9.375v-18.955c-0.001-19.032,11.258-36.429,28.682-44.32c0.643-0.291,1.269-0.606,1.908-0.902v73.609 c0,6.506-5.294,11.8-11.8,11.8h-190.3c-6.506,0-11.8-5.294-11.8-11.8V344.502c30.43,20.98,67.279,33.285,106.953,33.285 c39.671,0,76.519-12.304,106.947-33.281V386.966z M218.759,359.037c-93.817,0-170.143-76.326-170.143-170.143 S124.942,18.75,218.759,18.75s170.142,76.326,170.142,170.143S312.576,359.037,218.759,359.037z M449.536,213.424 c-7.635,0-13.846-6.211-13.846-13.846c0-7.635,6.211-13.846,13.846-13.846c7.635,0,13.846,6.211,13.846,13.846 C463.383,207.213,457.173,213.424,449.536,213.424z"/> </g> </g> <g> <g> <path d="M240.947,392.944H139.702c-5.179,0-9.375,4.197-9.375,9.375v61.872c0,5.177,4.196,9.375,9.375,9.375h101.245 c5.179,0,9.375-4.198,9.375-9.375v-61.872C250.322,397.141,246.126,392.944,240.947,392.944z M231.572,454.815h-82.495v-43.122 h82.495V454.815z"/> </g> </g> <g> <g> <circle cx="237.049" cy="41.749" r="9.375"/> </g> </g> </g>
</svg>